<svg id="Layer_1" data-name="Layer 1" xmlns="http://www.w3.org/2000/svg" viewBox="0 0 1607.07 344.81"><defs><style>.cls-1{fill:#010101;}.cls-2{fill:#27a84a;}.cls-3{fill:#ef4323;}</style></defs><title>Clinikk Logo Registered</title><path class="cls-1" d="M599.3,241c-18.63,18.36-42.67,26.88-68.79,26.88-67.21,0-95.64-46.27-95.9-93.33-.27-47.29,30.51-95.37,95.9-95.37,24.57,0,47.82,9.31,66.45,27.64l-22.76,22c-11.89-11.65-27.9-17.07-43.69-17.07-43.69,0-62.55,32.56-62.28,62.81.23,30,17.56,61.3,62.28,61.3,15.79,0,33.62-6.48,45.51-18.37Z"/><path class="cls-1" d="M675.82,82.8V232.23h93.06v31.54H641.7V82.8Z"/><path class="cls-1" d="M819.05,263.77V82.8h33.88v181Z"/><path class="cls-1" d="M1029.78,82.53h34.11V263.77h-21.2V264L947.55,141.75v122H913.43V82.8h27.64L1029.78,195Z"/><path class="cls-1" d="M1121.29,263.77V82.8h33.88v181Z"/><path class="cls-1" d="M1358.37,83.85,1278,170.44l87.15,91.25v2.08H1323l-75.76-80.15v80.15H1213.1V82.8h34.11v76.52L1316,82.8h42.4Z"/><path class="cls-1" d="M1553.58,83.85l-80.41,86.59,87.15,91.25v2.08h-42.14l-75.76-80.15v80.15h-34.11V82.8h34.11v76.52l68.76-76.52h42.4Z"/><path class="cls-2" d="M333.15,48.77A39.47,39.47,0,1,1,293.68,9.3a39.47,39.47,0,0,1,39.47,39.47"/><path class="cls-3" d="M286.18,120.54c-11.81-.66-23.67-.21-35.52-.33a39.94,39.94,0,0,1-7.75-.58c-12.56-2.6-20.49-12.59-20.6-25.9-.09-10.78,0-21.57,0-32.36-.11-21.63-11.77-41.3-32-48.21-12.92-4.4-32.58-2.4-38.15-.15a51.61,51.61,0,0,0-32.38,47.63c0,10.78-.1,21.57,0,32.36.39,39.62,17,70.64,49.41,93.37,4.95,3.47,8.56,8.52,12,13.48,9.76,13.89,15.12,29.29,15.34,46.32q.25,18.47,0,37a25.46,25.46,0,0,1-50.9-.37c-.08-11.18,0-22.35,0-33.52,0-29.07-22.23-51.65-51.29-52-11-.13-22,.06-32.95-.05-13.9-.14-23.69-8.26-26.28-21.58s7.51-27.36,21.09-29.19c7.29-1,14.62-.22,21.93-.4,3.53-.08,7.08-.07,10.62,0h5.76V120.43H88.76c-10.76,0-21.52-.4-32.23.19-23.36,1.31-42.06,19-46.64,41.48-.58,2.84-.62,13.65-.58,14.19a51,51,0,0,0,50.41,46.48c11.57,0,23.11,0,34.68,0A25.39,25.39,0,0,1,119.72,247c.36,9.52.16,19.06.18,28.59,0,4.72-.19,9.45.53,14.13a51.3,51.3,0,0,0,61.41,42.82c21.34-4.31,38.08-22.89,40.16-44.71,1-10,.23-20,.39-30,.15-8.37.17-16.77-1.14-25.07-4.75-30.1-19.31-54.38-43.72-72.64A68.71,68.71,0,0,1,167,150.83c-12.49-14.15-19.94-30.57-21.17-49.39-.92-14.12-.59-28.3-.13-42.45.54-15.61,16.16-27,31.27-23.1,12.12,3.11,19.54,12.84,19.64,25.87.08,11,0,21.95,0,32.93a51.13,51.13,0,0,0,50.1,51.11c11.75.22,23.5,0,35.25.12a25.69,25.69,0,0,1,25.54,25.28,25.33,25.33,0,0,1-24.75,25.62c-10.31.27-20.62.17-30.93.12h-4v25.77h2l.42,0c10.11-.09,20.22-.08,30.34,0a51.69,51.69,0,0,0,10.33-.82c24.68-4.8,41.4-24.51,42.17-49.62.82-26.52-20.4-50.22-46.87-51.72"/><path class="cls-1" d="M1596.84,97.07a16.59,16.59,0,1,1-16.54-16.14A16.22,16.22,0,0,1,1596.84,97.07Zm-29,0c0,7.2,5.33,12.9,12.61,12.9,7.09,0,12.31-5.7,12.31-12.79s-5.22-13-12.41-13A12.56,12.56,0,0,0,1567.79,97.07Zm10,8.48H1574V89.4a33.09,33.09,0,0,1,6.2-.49c3,0,4.43.49,5.62,1.17a4.52,4.52,0,0,1,1.57,3.56c0,1.77-1.38,3.15-3.35,3.73v.2c1.58.59,2.47,1.77,3,3.94.5,2.46.79,3.45,1.19,4h-4c-.49-.59-.79-2.07-1.28-4-.29-1.77-1.28-2.55-3.35-2.55h-1.77Zm.1-9.16h1.77c2.07,0,3.74-.69,3.74-2.36,0-1.48-1.08-2.46-3.44-2.46a8.94,8.94,0,0,0-2.07.19Z"/></svg>